<svg version="1.1" id="Layer_1" xmlns="http://www.w3.org/2000/svg" xmlns:xlink="http://www.w3.org/1999/xlink" viewBox="0 0 512.001 512.001" xml:space="preserve" fill="#000000"><g id="SVGRepo_bgCarrier" stroke-width="0"></g><g id="SVGRepo_tracerCarrier" stroke-linecap="round" stroke-linejoin="round"></g><g id="SVGRepo_iconCarrier"> <path style="fill:#D7D5D9;" d="M448.97,244.213h23.2v-24.761c0-12.402,10.054-22.457,22.457-22.457h9.794v-45.47h-9.794 c-12.402,0-22.457-10.054-22.457-22.457l0,0c0-12.402,10.054-22.457,22.457-22.457h9.794V61.143h-9.794 c-12.402,0-22.457-10.054-22.457-22.457v-15.25h-23.2H142.145H97.2H63.03H39.829v24.761c0,12.402-10.054,22.457-22.457,22.457H7.579 v45.47h9.794c12.402,0,22.457,10.054,22.457,22.457l0,0c0,12.402-10.054,22.457-22.457,22.457H7.579v45.47h9.794 c12.402,0,22.457,10.054,22.457,22.457v15.25h23.2h41.993H448.97V244.213z"></path> <polygon style="fill:#7300ff;" points="113.024,208.684 84.102,208.684 84.102,58.966 427.898,58.966 427.898,208.684 292.546,208.684 "></polygon> <g style="opacity:0.2;"> <path style="fill:#1D1D20;" d="M494.627,106.613h9.794v-45.47h-9.794c-12.402,0-22.457-10.054-22.457-22.457v-15.25h-23.2h-71.331 c-41.257,109.401-136.732,180.378-209.901,220.777H448.97h23.2v-24.761c0-12.402,10.054-22.457,22.457-22.457h9.794v-45.47h-9.794 c-12.402,0-22.457-10.054-22.457-22.457l0,0C472.17,116.667,482.225,106.613,494.627,106.613z"></path> </g> <path style="fill:#d17aff;" d="M440.274,459.202l-4.355,19.341c-1.551,6.889-8.457,11.256-15.346,9.705L80.477,411.664 c-6.889-1.551-11.256-8.457-9.705-15.346l48.095-213.583c1.551-6.889,8.457-11.256,15.346-9.705l340.097,76.584 c6.889,1.551,11.256,8.457,9.705,15.346l-28.376,126L440.274,459.202z"></path> <g> <path style="opacity:0.52;fill:#4500ad;enable-background:new ;" d="M474.309,249.613l-21.665-4.879l-23.17,102.882 l-15.364,68.242l-4.355,19.341c-1.551,6.889-8.457,11.256-15.346,9.705L75.978,373.2l-5.206,23.118 c-1.551,6.889,2.816,13.795,9.705,15.346l340.097,76.584c6.889,1.551,13.795-2.816,15.346-9.705l4.355-19.341l15.364-68.242 l28.376-126C485.565,258.071,481.198,251.166,474.309,249.613z"></path> <rect x="99.363" y="263.855" transform="matrix(-0.9756 -0.2197 0.2197 -0.9756 502.2866 636.1467)" style="fill:#4500ad;" width="374.303" height="52.58"></rect> <rect x="138.1" y="343.327" transform="matrix(-0.9756 -0.2197 0.2197 -0.9756 347.6347 756.3689)" style="fill:#4500ad;" width="155.546" height="31.057"></rect> <rect x="324.275" y="373.932" transform="matrix(-0.9756 -0.2197 0.2197 -0.9756 609.4797 846.6975)" style="fill:#4500ad;" width="55.086" height="31.057"></rect> </g> <path d="M494.628,114.192h9.793c4.187,0,7.579-3.393,7.579-7.579v-45.47c0-4.186-3.392-7.579-7.579-7.579h-9.793 c-8.204,0-14.879-6.674-14.879-14.878v-15.25c0-4.186-3.392-7.579-7.579-7.579H142.145c-4.187,0-7.579,3.393-7.579,7.579 s3.392,7.579,7.579,7.579h322.446v7.671c0,16.562,13.474,30.036,30.037,30.036h2.214v30.312h-2.214 c-16.563,0-30.037,13.473-30.037,30.036s13.474,30.036,30.037,30.036h2.214v30.312h-2.214c-16.563,0-30.037,13.473-30.037,30.035 v17.182h-13.419l-90.469-20.372h67.195c4.187,0,7.579-3.393,7.579-7.579V58.966c0-4.186-3.392-7.579-7.579-7.579H84.102 c-4.187,0-7.579,3.393-7.579,7.579v149.718c0,4.186,3.392,7.579,7.579,7.579h19.448l-4.588,20.372H47.408v-7.671 c0-16.562-13.474-30.036-30.036-30.036h-2.214v-30.312h2.214c16.562,0,30.036-13.473,30.036-30.036s-13.474-30.036-30.036-30.036 h-2.214V78.233h2.214c16.562,0,30.036-13.473,30.036-30.036V31.015h49.791c4.187,0,7.579-3.393,7.579-7.579 s-3.392-7.579-7.579-7.579h-57.37c-4.187,0-7.579,3.393-7.579,7.579v24.761c0,8.204-6.674,14.878-14.878,14.878H7.579 C3.392,63.075,0,66.468,0,70.654v45.47c0,4.186,3.392,7.579,7.579,7.579h9.793c8.204,0,14.878,6.674,14.878,14.878 c0,8.204-6.674,14.878-14.878,14.878H7.579c-4.187,0-7.579,3.393-7.579,7.579v45.47c0,4.186,3.392,7.579,7.579,7.579h9.793 c8.204,0,14.878,6.674,14.878,14.878v15.25c0,4.186,3.392,7.579,7.579,7.579h55.719l-0.532,2.36l-4.243,18.842 c0,0.002,0,0.003-0.001,0.005L63.379,394.652c-1.195,5.306-0.246,10.772,2.675,15.39c2.92,4.618,7.452,7.82,12.758,9.014 l340.097,76.584c1.495,0.337,3.003,0.503,4.501,0.503c3.818,0,7.572-1.081,10.888-3.179c4.617-2.92,7.819-7.452,9.014-12.758 l4.355-19.34c0.92-4.084-1.645-8.139-5.729-9.058c-4.081-0.921-8.139,1.645-9.058,5.729l-4.355,19.34 c-0.306,1.357-1.133,2.521-2.329,3.277c-1.197,0.757-2.602,1.002-3.958,0.698L82.141,404.27c-1.357-0.305-2.52-1.132-3.276-2.328 c-0.757-1.196-1.004-2.602-0.699-3.958l25.73-114.264l350.358,78.894l-6.009,26.682c-0.92,4.084,1.645,8.14,5.729,9.059 c4.084,0.922,8.139-1.645,9.058-5.729l28.376-126.001c1.195-5.306,0.246-10.772-2.675-15.39c-2.199-3.478-5.313-6.15-8.984-7.769 v-24.012c0-8.204,6.674-14.877,14.879-14.877h9.793c4.187,0,7.579-3.393,7.579-7.579v-45.47c0-4.186-3.392-7.579-7.579-7.579h-9.793 c-8.204,0-14.879-6.674-14.879-14.878C479.75,120.865,486.423,114.192,494.628,114.192z M91.681,201.105V66.545h328.64v134.56 H293.388l-157.512-35.469c-5.305-1.194-10.771-0.245-15.389,2.676c-4.617,2.92-7.818,7.452-9.014,12.758l-4.511,20.035H91.681z M115.445,232.429l350.357,78.894l-8.22,36.503l-350.357-78.894L115.445,232.429z M118.775,217.641l1.668-7.408 c0.002-0.01,0.005-0.021,0.007-0.031l5.811-25.802c0.306-1.357,1.133-2.521,2.329-3.277c1.197-0.757,2.6-1.004,3.958-0.698 l312.77,70.43c1.083,0.597,2.327,0.939,3.652,0.939h0.515l23.159,5.215c2.829,0.637,4.612,3.457,3.976,6.287l-7.486,33.241 L118.775,217.641z"></path> <path d="M296.817,353.378l-151.742-34.169c-1.96-0.441-4.018-0.086-5.716,0.988c-1.699,1.074-2.901,2.78-3.343,4.74l-6.822,30.297 c-0.92,4.084,1.645,8.139,5.729,9.058l151.741,34.169c0.561,0.126,1.12,0.187,1.671,0.187c3.466,0,6.593-2.393,7.387-5.916 l6.823-30.297c0.443-1.961,0.087-4.018-0.988-5.717S298.777,353.82,296.817,353.378z M282.6,382.01l-136.954-30.839l3.492-15.51 l136.954,30.839L282.6,382.01z"></path> <path d="M330.017,360.854c-1.96-0.441-4.018-0.086-5.716,0.988c-1.699,1.074-2.901,2.78-3.343,4.74l-6.822,30.297 c-0.92,4.084,1.645,8.139,5.729,9.058l53.739,12.101c0.551,0.124,1.11,0.185,1.664,0.185c1.423,0,2.829-0.4,4.051-1.173 c1.699-1.074,2.901-2.78,3.343-4.74l6.822-30.297c0.92-4.084-1.645-8.139-5.729-9.058L330.017,360.854z M369.54,401.588 l-38.952-8.771l3.492-15.51l38.952,8.771L369.54,401.588z"></path> </g></svg>
